<?xml version="1.0" standalone="no"?><svg xmlns:xlink="http://www.w3.org/1999/xlink" xmlns="http://www.w3.org/2000/svg" viewBox="0 0 1000 33.32718253968254" preserveAspectRatio="xMaxYMax slice"><g transform="scale(0.9920634920634921)"><rect x="0" y="0" width="1008" height="33.6" fill="#fafafa"/><rect x="0" y="0" width="33.6" height="33.6" fill="#fafafa"/><rect x="0" y="0" width="16.8" height="16.8" fill="#726c7e"/><polygon points="0,0 16.8,0 0,16.8" fill="#ffcccc"/><rect x="16.8" y="0" width="16.8" height="16.8" fill="#c6c2cb"/><polygon points="16.8,0 33.6,16.8 16.8,16.8" fill="#fbefef"/><rect x="0" y="16.8" width="16.8" height="16.8" fill="#fbefef"/><polygon points="0,16.8 16.8,33.6 0,33.6" fill="#81798c"/><rect x="16.8" y="16.8" width="16.8" height="16.8" fill="#fde2e2"/><polygon points="33.6,16.8 33.6,33.6 16.8,33.6" fill="#4e465d"/><rect x="33.6" y="0" width="33.6" height="33.6" fill="#fafafa"/><rect x="33.6" y="0" width="16.8" height="16.8" fill="#9e97a6"/><polygon points="50.400000000000006,0 50.400000000000006,16.8 33.6,16.8" fill="#fbf0f0"/><rect x="50.4" y="0" width="16.8" height="16.8" fill="#ededee"/><polygon points="67.2,0 67.2,16.8 50.4,16.8" fill="#817b8b"/><rect x="33.6" y="16.8" width="16.8" height="16.8" fill="#e2e1e4"/><polygon points="33.6,16.8 50.400000000000006,16.8 50.400000000000006,33.6" fill="#fde1e1"/><rect x="50.4" y="16.8" width="16.8" height="16.8" fill="#e5e3e7"/><polygon points="50.4,16.8 67.2,33.6 50.4,33.6" fill="#fce3e3"/><rect x="67.2" y="0" width="33.6" height="33.6" fill="#fafafa"/><rect x="67.2" y="0" width="16.8" height="16.8" fill="#e7e6e9"/><polygon points="67.2,0 84,0 84,16.8" fill="#faf6f6"/><rect x="84" y="0" width="16.8" height="16.8" fill="#484057"/><polygon points="84,0 100.8,16.8 84,16.8" fill="#fce6e6"/><rect x="67.2" y="16.8" width="16.8" height="16.8" fill="#edecee"/><polygon points="67.2,16.8 84,16.8 84,33.6" fill="#fbefef"/><rect x="84" y="16.8" width="16.8" height="16.8" fill="#a7a4ae"/><polygon points="84,16.8 100.8,33.6 84,33.6" fill="#fecfcf"/><rect x="100.80000000000001" y="0" width="33.6" height="33.6" fill="#fafafa"/><rect x="100.8" y="0" width="16.8" height="16.8" fill="#3a314a"/><polygon points="100.8,0 117.6,16.8 100.8,16.8" fill="#fed5d5"/><rect x="117.6" y="0" width="16.8" height="16.8" fill="#fde1e1"/><polygon points="117.6,0 134.4,16.8 117.6,16.8" fill="#9b94a3"/><rect x="100.8" y="16.8" width="16.8" height="16.8" fill="#fed1d1"/><polygon points="100.8,16.8 117.6,33.6 100.8,33.6" fill="#70667c"/><rect x="117.6" y="16.8" width="16.8" height="16.8" fill="#fed8d8"/><polygon points="134.4,16.8 134.4,33.6 117.6,33.6" fill="#fed7d7"/><rect x="134.4" y="0" width="33.6" height="33.6" fill="#efeef0"/><polygon points="134.4,0 168,0 168,33.6" fill="#a49dab"/><rect x="168" y="0" width="33.6" height="33.6" fill="#fafafa"/><rect x="168" y="0" width="16.8" height="16.8" fill="#ecebed"/><polygon points="168,0 184.8,16.8 168,16.8" fill="#fddede"/><rect x="184.8" y="0" width="16.8" height="16.8" fill="#877f91"/><polygon points="201.60000000000002,0 201.60000000000002,16.8 184.8,16.8" fill="#b2adb8"/><rect x="168" y="16.8" width="16.8" height="16.8" fill="#857d8f"/><polygon points="168,16.8 184.8,16.8 168,33.6" fill="#afa9b5"/><rect x="184.8" y="16.8" width="16.8" height="16.8" fill="#fed4d4"/><polygon points="184.8,16.8 201.60000000000002,16.8 184.8,33.6" fill="#c5c2c9"/><rect x="201.6" y="0" width="33.6" height="33.6" fill="#a29caa"/><polygon points="201.6,0 235.2,33.6 201.6,33.6" fill="#fed5d5"/><rect x="235.20000000000002" y="0" width="33.6" height="33.6" fill="#fafafa"/><rect x="235.2" y="0" width="16.8" height="16.8" fill="#e5e4e7"/><polygon points="252,0 252,16.8 235.2,16.8" fill="#a9a6b0"/><rect x="252" y="0" width="16.8" height="16.8" fill="#f3f2f3"/><polygon points="252,0 268.8,16.8 252,16.8" fill="#fde1e1"/><rect x="235.2" y="16.8" width="16.8" height="16.8" fill="#352c46"/><polygon points="235.2,16.8 252,16.8 235.2,33.6" fill="#554d63"/><rect x="252" y="16.8" width="16.8" height="16.8" fill="#cbc8cf"/><polygon points="252,16.8 268.8,16.8 268.8,33.6" fill="#fceaea"/><rect x="268.8" y="0" width="33.6" height="33.6" fill="#fafafa"/><rect x="268.8" y="0" width="16.8" height="16.8" fill="#2d243e"/><polygon points="268.8,0 285.6,16.8 268.8,16.8" fill="#8f8899"/><rect x="285.6" y="0" width="16.8" height="16.8" fill="#6d6779"/><polygon points="285.6,0 302.40000000000003,16.8 285.6,16.8" fill="#faf9f9"/><rect x="268.8" y="16.8" width="16.8" height="16.8" fill="#fddbdb"/><polygon points="268.8,16.8 285.6,16.8 285.6,33.6" fill="#fce9e9"/><rect x="285.6" y="16.8" width="16.8" height="16.8" fill="#473a56"/><polygon points="285.6,16.8 302.40000000000003,16.8 285.6,33.6" fill="#fbf4f4"/><rect x="302.4" y="0" width="33.6" height="33.6" fill="#ffcbcb"/><polygon points="302.4,0 336,33.6 302.4,33.6" fill="#d0cfd4"/><rect x="336" y="0" width="33.6" height="33.6" fill="#5b4f68"/><polygon points="336,0 369.6,0 369.6,33.6" fill="#a29ba9"/><rect x="369.6" y="0" width="33.6" height="33.6" fill="#595267"/><polygon points="369.6,0 403.20000000000005,0 369.6,33.6" fill="#f1f0f2"/><rect x="403.20000000000005" y="0" width="33.6" height="33.6" fill="#fafafa"/><rect x="403.2" y="0" width="16.8" height="16.8" fill="#fbeded"/><polygon points="403.2,0 420,0 420,16.8" fill="#fde0e0"/><rect x="420" y="0" width="16.8" height="16.8" fill="#322843"/><polygon points="436.8,0 436.8,16.8 420,16.8" fill="#e8e7ea"/><rect x="403.2" y="16.8" width="16.8" height="16.8" fill="#fddcdc"/><polygon points="403.2,16.8 420,16.8 403.2,33.6" fill="#4b3e5a"/><rect x="420" y="16.8" width="16.8" height="16.8" fill="#b5b0bb"/><polygon points="420,16.8 436.8,33.6 420,33.6" fill="#f6f6f6"/><rect x="436.8" y="0" width="33.6" height="33.6" fill="#fafafa"/><rect x="436.8" y="0" width="16.8" height="16.8" fill="#fecfcf"/><polygon points="436.8,0 453.6,16.8 436.8,16.8" fill="#faf7f7"/><rect x="453.6" y="0" width="16.8" height="16.8" fill="#5e576b"/><polygon points="453.6,0 470.40000000000003,0 470.40000000000003,16.8" fill="#625a6e"/><rect x="436.8" y="16.8" width="16.8" height="16.8" fill="#a8a2af"/><polygon points="436.8,16.8 453.6,16.8 436.8,33.6" fill="#2f2540"/><rect x="453.6" y="16.8" width="16.8" height="16.8" fill="#8b8394"/><polygon points="453.6,16.8 470.40000000000003,33.6 453.6,33.6" fill="#d1cfd4"/><rect x="470.4" y="0" width="33.6" height="33.6" fill="#fbf0f0"/><polygon points="470.4,0 504,0 504,33.6" fill="#fddbdb"/><rect x="504" y="0" width="33.6" height="33.6" fill="#fafafa"/><rect x="504" y="0" width="16.8" height="16.8" fill="#f4f4f4"/><polygon points="504,0 520.8,16.8 504,16.8" fill="#574b65"/><rect x="520.8" y="0" width="16.8" height="16.8" fill="#5f546c"/><polygon points="520.8,0 537.5999999999999,16.8 520.8,16.8" fill="#7c7387"/><rect x="504" y="16.8" width="16.8" height="16.8" fill="#fed7d7"/><polygon points="504,16.8 520.8,33.6 504,33.6" fill="#c2bfc6"/><rect x="520.8" y="16.8" width="16.8" height="16.8" fill="#2c233e"/><polygon points="537.5999999999999,16.8 537.5999999999999,33.6 520.8,33.6" fill="#fce6e6"/><rect x="537.6" y="0" width="33.6" height="33.6" fill="#7d7788"/><polygon points="537.6,0 571.2,0 571.2,33.6" fill="#302741"/><rect x="571.2" y="0" width="33.6" height="33.6" fill="#fafafa"/><rect x="571.2" y="0" width="16.8" height="16.8" fill="#a6a0ae"/><polygon points="571.2,0 588,0 588,16.8" fill="#4d415d"/><rect x="588" y="0" width="16.8" height="16.8" fill="#9a95a2"/><polygon points="588,0 604.8,0 604.8,16.8" fill="#e7e6e8"/><rect x="571.2" y="16.8" width="16.8" height="16.8" fill="#fbf5f5"/><polygon points="571.2,16.8 588,16.8 588,33.6" fill="#fdd9d9"/><rect x="588" y="16.8" width="16.8" height="16.8" fill="#fbf1f1"/><polygon points="588,16.8 604.8,16.8 588,33.6" fill="#fcebeb"/><rect x="604.8000000000001" y="0" width="33.6" height="33.6" fill="#fafafa"/><rect x="604.8" y="0" width="16.8" height="16.8" fill="#635c70"/><polygon points="604.8,0 621.5999999999999,0 621.5999999999999,16.8" fill="#6d6379"/><rect x="621.6" y="0" width="16.8" height="16.8" fill="#fdd9d9"/><polygon points="621.6,0 638.4,16.8 621.6,16.8" fill="#a29ba9"/><rect x="604.8" y="16.8" width="16.8" height="16.8" fill="#50485f"/><polygon points="604.8,16.8 621.5999999999999,33.6 604.8,33.6" fill="#a099a8"/><rect x="621.6" y="16.8" width="16.8" height="16.8" fill="#fddbdb"/><polygon points="621.6,16.8 638.4,33.6 621.6,33.6" fill="#fbf4f4"/><rect x="638.4" y="0" width="33.6" height="33.6" fill="#3f374f"/><polygon points="638.4,0 672,0 672,33.6" fill="#b6b1bc"/><rect x="672" y="0" width="33.6" height="33.6" fill="#fafafa"/><rect x="672" y="0" width="16.8" height="16.8" fill="#fbf1f1"/><polygon points="672,0 688.8,16.8 672,16.8" fill="#60596d"/><rect x="688.8" y="0" width="16.8" height="16.8" fill="#d5d2d8"/><polygon points="688.8,0 705.5999999999999,16.8 688.8,16.8" fill="#9e97a6"/><rect x="672" y="16.8" width="16.8" height="16.8" fill="#c9c6cd"/><polygon points="688.8,16.8 688.8,33.6 672,33.6" fill="#c2bfc7"/><rect x="688.8" y="16.8" width="16.8" height="16.8" fill="#423452"/><polygon points="688.8,16.8 705.5999999999999,16.8 688.8,33.6" fill="#888392"/><rect x="705.6" y="0" width="33.6" height="33.6" fill="#fafafa"/><rect x="705.6" y="0" width="16.8" height="16.8" fill="#d0ced4"/><polygon points="705.6,0 722.4,0 722.4,16.8" fill="#fcebeb"/><rect x="722.4" y="0" width="16.8" height="16.8" fill="#faf6f6"/><polygon points="722.4,0 739.1999999999999,0 739.1999999999999,16.8" fill="#ffcece"/><rect x="705.6" y="16.8" width="16.8" height="16.8" fill="#b9b6bf"/><polygon points="705.6,16.8 722.4,16.8 722.4,33.6" fill="#e9e7ea"/><rect x="722.4" y="16.8" width="16.8" height="16.8" fill="#dbd8dd"/><polygon points="722.4,16.8 739.1999999999999,16.8 722.4,33.6" fill="#f6f5f6"/><rect x="739.2" y="0" width="33.6" height="33.6" fill="#e3e2e5"/><polygon points="739.2,0 772.8000000000001,33.6 739.2,33.6" fill="#797084"/><rect x="772.8" y="0" width="33.6" height="33.6" fill="#e4e2e6"/><polygon points="772.8,0 806.4,0 806.4,33.6" fill="#847b8e"/><rect x="806.4000000000001" y="0" width="33.6" height="33.6" fill="#fafafa"/><rect x="806.4" y="0" width="16.8" height="16.8" fill="#fed4d4"/><polygon points="806.4,0 823.1999999999999,0 823.1999999999999,16.8" fill="#efeef0"/><rect x="823.2" y="0" width="16.8" height="16.8" fill="#f4f3f4"/><polygon points="840,0 840,16.8 823.2,16.8" fill="#fbefef"/><rect x="806.4" y="16.8" width="16.8" height="16.8" fill="#a09aa8"/><polygon points="806.4,16.8 823.1999999999999,16.8 823.1999999999999,33.6" fill="#9a96a2"/><rect x="823.2" y="16.8" width="16.8" height="16.8" fill="#fed1d1"/><polygon points="840,16.8 840,33.6 823.2,33.6" fill="#6c6278"/><rect x="840" y="0" width="33.6" height="33.6" fill="#dcdbdf"/><polygon points="840,0 873.6,0 840,33.6" fill="#fde2e2"/><rect x="873.6" y="0" width="33.6" height="33.6" fill="#fafafa"/><rect x="873.6" y="0" width="16.8" height="16.8" fill="#fbf3f3"/><polygon points="873.6,0 890.4,0 890.4,16.8" fill="#a49eab"/><rect x="890.4" y="0" width="16.8" height="16.8" fill="#332a44"/><polygon points="907.1999999999999,0 907.1999999999999,16.8 890.4,16.8" fill="#dddce0"/><rect x="873.6" y="16.8" width="16.8" height="16.8" fill="#4d455c"/><polygon points="890.4,16.8 890.4,33.6 873.6,33.6" fill="#8f8899"/><rect x="890.4" y="16.8" width="16.8" height="16.8" fill="#9f98a7"/><polygon points="890.4,16.8 907.1999999999999,33.6 890.4,33.6" fill="#6c6578"/><rect x="907.2" y="0" width="33.6" height="33.6" fill="#fddddd"/><polygon points="907.2,0 940.8000000000001,33.6 907.2,33.6" fill="#473f56"/><rect x="940.8000000000001" y="0" width="33.6" height="33.6" fill="#fafafa"/><rect x="940.8" y="0" width="16.8" height="16.8" fill="#867e90"/><polygon points="940.8,0 957.5999999999999,16.8 940.8,16.8" fill="#797384"/><rect x="957.6" y="0" width="16.8" height="16.8" fill="#a9a5b0"/><polygon points="957.6,0 974.4,16.8 957.6,16.8" fill="#575065"/><rect x="940.8" y="16.8" width="16.8" height="16.8" fill="#443b53"/><polygon points="957.5999999999999,16.8 957.5999999999999,33.6 940.8,33.6" fill="#746a80"/><rect x="957.6" y="16.8" width="16.8" height="16.8" fill="#50485f"/><polygon points="957.6,16.8 974.4,16.8 974.4,33.6" fill="#6a6077"/><rect x="974.4" y="0" width="33.6" height="33.6" fill="#676074"/><polygon points="974.4,0 1008,0 1008,33.6" fill="#e1e0e4"/></g></svg>